<?xml version="1.0"?>
<svg xmlns="http://www.w3.org/2000/svg" xmlns:xlink="http://www.w3.org/1999/xlink" xmlns:svgjs="http://svgjs.com/svgjs" version="1.1" width="512" height="512" x="0" y="0" viewBox="0 0 512 512" style="enable-background:new 0 0 512 512" xml:space="preserve" class=""><g><path xmlns="http://www.w3.org/2000/svg" d="m509.499 291.96c1.658-11.826 2.501-23.796 2.501-35.846 0-68.38-26.628-132.667-74.98-181.019-6.17-6.169-12.602-11.98-19.265-17.432-.03-.025-.061-.048-.091-.073-45.547-37.229-102.048-57.476-161.664-57.476-68.155 0-132.474 26.992-181.109 76.003-23.446 23.628-41.879 51.026-54.785 81.432-13.347 31.449-20.112 64.612-20.106 98.569.012 65.411 25.73 127.97 72.417 176.152 22.065 22.771 47.653 41.222 76.054 54.842 28.956 13.886 59.363 22.026 90.375 24.195 5.579.39 11.105.58 16.602.58 33.428 0 65.231-7.052 94.243-19.022.478-.171.948-.372 1.412-.594 62.64-26.273 112.092-75.468 136.452-126.006 4.959-10.291 9.112-21.105 12.341-32.146 4.232-13.243 7.353-26.795 9.37-40.546.107-.528.182-1.067.233-1.613zm-52.678-139.288h-125.62c-18.826 0-34.143-15.316-34.143-34.143s15.317-34.143 34.143-34.143h71.423c4.476 3.834 8.829 7.851 13.041 12.062 16.776 16.777 30.573 35.735 41.156 56.224zm-360.494-55.283c13.836-13.943 29.112-25.854 45.463-35.612 14.393 3.833 24.762 16.928 24.762 32.131 0 18.324-14.907 33.231-33.234 33.231l-61.954.014c7.419-10.536 15.75-20.479 24.963-29.764zm-65.985 151.138h174.106c23.352 0 42.35 18.998 42.35 42.35s-18.998 42.35-42.35 42.35h-21.44c-14.863 0-26.954 12.092-26.954 26.954 0 23.352-18.985 42.35-42.328 42.35l-27.64.014c-36.112-41.202-55.878-92.757-55.887-146.432-.001-2.535.058-5.062.143-7.586zm210.61 232.654c-43.745-3.06-87.231-20.416-123.128-48.575 37.019-2.07 66.716-32.035 68.357-69.18h18.267c40.003 0 72.549-32.545 72.549-72.549s-32.545-72.549-72.549-72.549h-171.006c2.896-16.717 7.721-33.095 14.463-48.979 1.724-4.061 3.573-8.054 5.519-11.992l79.896-.018c34.975 0 63.43-28.454 63.43-63.43 0-19.117-8.581-36.481-22.274-48.197 25.707-10.11 53.245-15.398 81.524-15.398 35.764 0 70.258 8.26 101.305 23.875h-26.104c-35.478 0-64.342 28.863-64.342 64.342s28.864 64.342 64.342 64.342h138.497c7.952 23.266 12.104 47.934 12.104 73.244 0 6.472-.282 12.917-.825 19.323l-49.778.015c-71.178 0-129.085 57.908-129.085 129.086 0 23.639 6.53 46.739 18.652 66.8-23.044 7.393-49.933 11.932-79.814 9.84zm230.006-155.704c-2.772 9.511-6.342 18.822-10.609 27.674-17.081 35.439-48.105 69.191-85.116 92.602-7.478 4.73-16.141 9.636-25.862 14.248-11.049-16.328-17.059-35.646-17.059-55.464 0-54.527 44.361-98.887 98.892-98.887l45.143-.013c-1.467 6.558-3.218 13.05-5.272 19.457z" fill="#8f8f8f" data-original="#000000" style=""/></g></svg>
